<?xml version="1.0" standalone="no"?>
<!DOCTYPE svg PUBLIC "-//W3C//DTD SVG 20010904//EN"
 "http://www.w3.org/TR/2001/REC-SVG-20010904/DTD/svg10.dtd">
<svg version="1.0" xmlns="http://www.w3.org/2000/svg"
 width="300.000000pt" height="231.000000pt" viewBox="0 0 300.000000 231.000000"
 preserveAspectRatio="xMidYMid meet">

<g transform="translate(0.000000,231.000000) scale(0.100000,-0.100000)"
fill="#000000" stroke="none">
<path d="M1375 2159 c-350 -44 -671 -285 -804 -604 -61 -145 -76 -225 -76
-400 0 -175 15 -255 76 -400 165 -396 605 -655 1030 -605 435 50 765 336 881
760 19 72 23 109 23 245 0 136 -4 173 -23 245 -114 419 -443 707 -867 759
-101 12 -139 12 -240 0z m268 -444 c138 -29 283 -123 358 -231 16 -24 36 -44
44 -44 17 0 55 112 48 141 -8 29 22 52 48 38 23 -12 25 -45 4 -56 -8 -5 -24
-35 -35 -68 -21 -60 -17 -74 18 -75 6 0 21 -9 32 -20 18 -18 20 -33 20 -148 0
-144 -4 -154 -64 -175 -33 -11 -42 -21 -55 -55 -8 -23 -36 -72 -61 -109 -71
-104 -184 -181 -332 -227 -15 -4 -13 -14 17 -85 l34 -81 -208 0 -209 0 33 79
34 80 -63 21 c-162 54 -295 176 -350 320 -15 40 -22 47 -64 60 l-47 15 -3 153
-3 153 38 15 c21 9 40 18 42 19 7 8 -33 111 -50 128 -24 22 -24 30 1 52 19 17
21 17 40 0 13 -12 18 -25 14 -40 -7 -30 26 -135 42 -135 7 0 33 26 58 58 138
180 385 267 619 217z"/>
<path d="M1430 1489 c-80 -8 -223 -47 -301 -80 -74 -32 -82 -45 -77 -133 3
-65 7 -79 28 -100 23 -22 39 -25 165 -35 277 -22 646 -7 695 28 49 35 63 168
22 204 -86 75 -359 135 -532 116z m-79 -138 c48 -48 37 -116 -22 -147 -73 -38
-155 33 -129 112 23 69 99 86 151 35z m440 0 c73 -74 -10 -191 -104 -146 -62
29 -75 98 -28 146 22 21 39 29 66 29 27 0 44 -8 66 -29z"/>
<path d="M1330 981 c0 -21 48 -76 82 -93 42 -22 120 -26 172 -8 37 12 96 71
96 95 0 24 -48 18 -85 -11 -19 -14 -53 -28 -75 -31 -34 -5 -49 0 -91 26 -48
29 -99 41 -99 22z"/>
</g>
</svg>
